<mxfile host="Electron" agent="Mozilla/5.0 (Macintosh; Intel Mac OS X 10_15_7) AppleWebKit/537.36 (KHTML, like Gecko) draw.io/27.0.9 Chrome/134.0.6998.205 Electron/35.4.0 Safari/537.36" version="27.0.9">
  <diagram name="Seite-1" id="WAoNsXmnH5iFFK2Z9HB0">
    <mxGraphModel dx="1106" dy="604" grid="1" gridSize="10" guides="1" tooltips="1" connect="1" arrows="1" fold="1" page="1" pageScale="1" pageWidth="827" pageHeight="1169" math="0" shadow="0">
      <root>
        <mxCell id="0" />
        <mxCell id="1" parent="0" />
        <mxCell id="Pfa-swxPCo7DQZMCoMqD-2" value="RestController" style="shape=umlLifeline;perimeter=lifelinePerimeter;whiteSpace=wrap;html=1;container=1;dropTarget=0;collapsible=0;recursiveResize=0;outlineConnect=0;portConstraint=eastwest;newEdgeStyle={&quot;curved&quot;:0,&quot;rounded&quot;:0};" parent="1" vertex="1">
          <mxGeometry x="155" y="70" width="100" height="250" as="geometry" />
        </mxCell>
        <mxCell id="Pfa-swxPCo7DQZMCoMqD-1" value="" style="html=1;points=[[0,0,0,0,5],[0,1,0,0,-5],[1,0,0,0,5],[1,1,0,0,-5]];perimeter=orthogonalPerimeter;outlineConnect=0;targetShapes=umlLifeline;portConstraint=eastwest;newEdgeStyle={&quot;curved&quot;:0,&quot;rounded&quot;:0};" parent="1" vertex="1">
          <mxGeometry x="200" y="160" width="10" height="130" as="geometry" />
        </mxCell>
        <mxCell id="Pfa-swxPCo7DQZMCoMqD-3" value="" style="shape=umlLifeline;perimeter=lifelinePerimeter;whiteSpace=wrap;html=1;container=1;dropTarget=0;collapsible=0;recursiveResize=0;outlineConnect=0;portConstraint=eastwest;newEdgeStyle={&quot;curved&quot;:0,&quot;rounded&quot;:0};participant=umlActor;" parent="1" vertex="1">
          <mxGeometry x="40" y="70" width="20" height="250" as="geometry" />
        </mxCell>
        <mxCell id="Pfa-swxPCo7DQZMCoMqD-4" value="getLocationForRoom()" style="html=1;verticalAlign=bottom;endArrow=block;curved=0;rounded=0;" parent="1" target="Pfa-swxPCo7DQZMCoMqD-1" edge="1">
          <mxGeometry width="80" relative="1" as="geometry">
            <mxPoint x="50" y="170" as="sourcePoint" />
            <mxPoint x="130" y="170" as="targetPoint" />
          </mxGeometry>
        </mxCell>
        <mxCell id="Pfa-swxPCo7DQZMCoMqD-5" value="" style="html=1;points=[[0,0,0,0,5],[0,1,0,0,-5],[1,0,0,0,5],[1,1,0,0,-5]];perimeter=orthogonalPerimeter;outlineConnect=0;targetShapes=umlLifeline;portConstraint=eastwest;newEdgeStyle={&quot;curved&quot;:0,&quot;rounded&quot;:0};" parent="1" vertex="1">
          <mxGeometry x="45" y="150" width="10" height="140" as="geometry" />
        </mxCell>
        <mxCell id="Pfa-swxPCo7DQZMCoMqD-9" value="RoomService" style="shape=umlLifeline;perimeter=lifelinePerimeter;whiteSpace=wrap;html=1;container=1;dropTarget=0;collapsible=0;recursiveResize=0;outlineConnect=0;portConstraint=eastwest;newEdgeStyle={&quot;curved&quot;:0,&quot;rounded&quot;:0};" parent="1" vertex="1">
          <mxGeometry x="330" y="70" width="100" height="250" as="geometry" />
        </mxCell>
        <mxCell id="Pfa-swxPCo7DQZMCoMqD-10" value="" style="html=1;points=[[0,0,0,0,5],[0,1,0,0,-5],[1,0,0,0,5],[1,1,0,0,-5]];perimeter=orthogonalPerimeter;outlineConnect=0;targetShapes=umlLifeline;portConstraint=eastwest;newEdgeStyle={&quot;curved&quot;:0,&quot;rounded&quot;:0};" parent="Pfa-swxPCo7DQZMCoMqD-9" vertex="1">
          <mxGeometry x="45" y="110" width="10" height="110" as="geometry" />
        </mxCell>
        <mxCell id="Pfa-swxPCo7DQZMCoMqD-11" value="getLocationForRoom()" style="html=1;verticalAlign=bottom;endArrow=block;curved=0;rounded=0;" parent="1" edge="1">
          <mxGeometry width="80" relative="1" as="geometry">
            <mxPoint x="210" y="200" as="sourcePoint" />
            <mxPoint x="375" y="200" as="targetPoint" />
          </mxGeometry>
        </mxCell>
        <mxCell id="uDtXBXXoVj85KGUQF1SS-1" value="OSM Extractor" style="shape=umlLifeline;perimeter=lifelinePerimeter;whiteSpace=wrap;html=1;container=1;dropTarget=0;collapsible=0;recursiveResize=0;outlineConnect=0;portConstraint=eastwest;newEdgeStyle={&quot;curved&quot;:0,&quot;rounded&quot;:0};" vertex="1" parent="1">
          <mxGeometry x="510" y="70" width="100" height="250" as="geometry" />
        </mxCell>
        <mxCell id="uDtXBXXoVj85KGUQF1SS-2" value="" style="html=1;points=[[0,0,0,0,5],[0,1,0,0,-5],[1,0,0,0,5],[1,1,0,0,-5]];perimeter=orthogonalPerimeter;outlineConnect=0;targetShapes=umlLifeline;portConstraint=eastwest;newEdgeStyle={&quot;curved&quot;:0,&quot;rounded&quot;:0};" vertex="1" parent="uDtXBXXoVj85KGUQF1SS-1">
          <mxGeometry x="45" y="120" width="10" height="90" as="geometry" />
        </mxCell>
        <mxCell id="uDtXBXXoVj85KGUQF1SS-3" value="getIndoorRoomsForBuilding()" style="html=1;verticalAlign=bottom;endArrow=block;curved=0;rounded=0;" edge="1" parent="1" target="uDtXBXXoVj85KGUQF1SS-2">
          <mxGeometry width="80" relative="1" as="geometry">
            <mxPoint x="385" y="224.5" as="sourcePoint" />
            <mxPoint x="550" y="225" as="targetPoint" />
            <Array as="points">
              <mxPoint x="480" y="224.5" />
            </Array>
          </mxGeometry>
        </mxCell>
      </root>
    </mxGraphModel>
  </diagram>
</mxfile>
